<?xml version="1.0" encoding="UTF-8" standalone="no"?>
<svg
   width="842.37762"
   height="429.49408"
   version="1.1"
   id="svg70"
   sodipodi:docname="vehicle.svg"
   inkscape:version="1.3 (0e150ed6c4, 2023-07-21)"
   viewBox="0 0 842.37762 429.49408"
   inkscape:export-filename="top-down-shot-of-a-passenger-car.png"
   inkscape:export-xdpi="96"
   inkscape:export-ydpi="96"
   xmlns:inkscape="http://www.inkscape.org/namespaces/inkscape"
   xmlns:sodipodi="http://sodipodi.sourceforge.net/DTD/sodipodi-0.dtd"
   xmlns="http://www.w3.org/2000/svg"
   xmlns:svg="http://www.w3.org/2000/svg">
  <defs
     id="defs70">
    <inkscape:path-effect
       effect="mirror_symmetry"
       start_point="0,214.74704"
       end_point="842.37762,214.74704"
       center_point="421.18881,214.74704"
       id="path-effect1"
       is_visible="true"
       lpeversion="1.2"
       lpesatellites=""
       mode="horizontal"
       discard_orig_path="false"
       fuse_paths="false"
       oposite_fuse="false"
       split_items="false"
       split_open="false"
       link_styles="false" />
    <linearGradient
       id="swatch70"
       inkscape:swatch="solid">
      <stop
         style="stop-color:#000000;stop-opacity:1;"
         offset="0"
         id="stop70" />
    </linearGradient>
  </defs>
  <sodipodi:namedview
     id="namedview70"
     pagecolor="#505050"
     bordercolor="#ffffff"
     borderopacity="1"
     inkscape:showpageshadow="0"
     inkscape:pageopacity="0"
     inkscape:pagecheckerboard="1"
     inkscape:deskcolor="#505050"
     inkscape:zoom="1"
     inkscape:cx="244.5"
     inkscape:cy="346.5"
     inkscape:window-width="2256"
     inkscape:window-height="1398"
     inkscape:window-x="-11"
     inkscape:window-y="-11"
     inkscape:window-maximized="1"
     inkscape:current-layer="svg70"
     showgrid="false" />
  <path
     fill="#05698e"
     d="m 836.79831,306.36029 c -6.015,22.475 -12.775,36.666 -27.921,54.469 -2.44,1.765 -4.484,4.13 -6.819,6.061 -6.892,5.7 -14.188,11.172 -22.025,15.498 l -0.064,-0.575 c -0.61,-5.926 0.388,-11.491 -2.394,-16.985 l 3.023,-2.854 c 0.169,-0.104 0.346,-0.197 0.508,-0.313 14.142,-10.116 20.274,-41.476 22.59,-58.042 1.5554,0.31895 0.33818,-88.90429 0.33818,-88.90429 h 38.50589 c 0,0 -8.31776,91.90972 -5.74207,91.64529 z m 0,-183.2265 c -6.015,-22.475 -12.775,-36.666 -27.921,-54.469 -2.44,-1.765 -4.484,-4.13 -6.819,-6.061 -6.892,-5.7 -14.188,-11.172 -22.025,-15.498 l -0.064,0.575 c -0.61,5.926 0.388,11.491 -2.394,16.985 l 3.023,2.854 c 0.169,0.104 0.346,0.197 0.508,0.313 14.142,10.116 20.274,41.476 22.59,58.042 1.5554,-0.31895 0.34569,88.84021 0.34569,88.84021 h 38.49838 c 0,0 -8.31776,-91.84564 -5.74207,-91.58121 z"
     id="FrontBumper"
     sodipodi:nodetypes="cccccccccccccccccccccccc"
     inkscape:label="FrontBumper" />
  <path
     fill="#023047"
     d="m 803.28131,118.58529 c 0.869,10.336 0.66,20.798 0.732,31.167 l 0.027,62.653 q 0.399,29.925 0.479,59.852 c 0.02,10.217 0.905,21.321 -0.823,31.362 -2.316,16.566 -8.448,47.926 -22.59,58.042 -0.162,0.116 -0.339,0.209 -0.508,0.313 8.468,-12.759 18.192,-34.757 18.786,-49.754 4.918,-15.721 1.772,-76.545 1.5,-97.351 l -176.534,0.253 0.209,30.337 c 0.036,7.715 0.428,15.714 -0.83,23.347 -2.031,12.331 -11.665,30.093 -17.118,41.798 q -14.494,31.198 -29.504,62.15 c -2.87,0.996 -5.747,2.008 -8.673,2.827 -25.122,7.031 -47.365,-3.109 -70.588,-11.341 -9.456,-3.352 -19.608,-6.22 -28.356,-11.152 2.556,-6.193 5.764,-12.102 8.263,-18.34 7.024,-17.534 12.42,-36.519 16.385,-54.967 4.249,-19.77 3.411,-39.44 3.387,-59.502 -0.038,-32.415 1.262,-66.749 -8.772,-98.001 -2.397,-7.464 -5.727,-14.542 -8.976,-21.659 -2.915,-6.385996 -5.615,-13.540996 -9.459,-19.400996 -0.557,-0.848 -1.018,-1.471 -1.346,-2.445 -0.267,-0.794 0.028,-0.948 0.374,-1.644 1.551,-1.171 3.105,-1.982 4.859,-2.79 8.429,-3.885 17.177,-7.14 25.68,-10.875 5.255,-2.309 27.244,-13.618 31.11,-14.041 0.229,-0.025 0.46,-0.037 0.69,-0.06 6.423,-0.645 12.977,-0.227 19.433,-0.193 7.498,0.039 15.001,-0.143 22.5,-0.171 7.572,12.503 13.514,26.004 20.226,38.981 l 16.215,31.188996 c 4.436,8.529 11.817,20.134 13.534,29.478 1.426,7.759 0.798,16.316 0.783,24.178 l 0.006,38.109 176.61,0.338 c -0.365,-32.5 1.153,-65.109 -1.385,-97.537 l 0.413,-1.63 c -0.874,-8.617 -2.784,-17.118996 -6.164,-25.120996 -2.528,-5.763 -5.613,-11.132 -8.903,-16.486 6.622,3.958 9.022,8.88 11.889,15.743 2.804,8.192 4.55,16.533996 5.775,25.087996 z m -183.39,79.26 c 0.045,-12.105 1.294,-36.625 -0.785,-47.304 -1.991,-10.234 -20.492,-42.992 -26.291,-54.267996 -7.449,-14.48 -14.377,-29.552 -22.597,-43.586 -8.441,0.033 -31.456,-1.238 -38.369,0.549 -5.07,1.31 -10.571,4.464 -15.003,7.252 -14.058,6.354 -28.183,13.007 -42.623,18.444 22.322,44.582996 27.462,64.047996 27.714,114.445996 -0.642,20.624 0.634,41.367 -0.423,61.971 -1.649,32.128 -12.955,66.688 -26.653,95.729 10.54,3.867 21.166,7.504 31.679,11.442 25.825,9.676 40.135,15.573 67.58,6.696 7.649,-15.75 14.701,-31.832 22.047,-47.73 6.572,-13.277 19.528,-38.387 22.705,-51.954 2.284,-9.752 1.11,-21.23 1.067,-31.256 z"
     id="path23" />
  <path
     fill="#219ebc"
     d="m 780.345,47.528361 -1.49048,16.116094 c -2.35587,-1.80749 -3.82188,-3.189828 -4.13521,-3.411161 -0.78667,-0.564 -1.60033,-1.085667 -2.441,-1.565 -0.84067,-0.479333 -1.70433,-0.913667 -2.591,-1.303 -0.886,-0.388667 -1.79,-0.730667 -2.712,-1.026 -0.922,-0.294667 -1.85667,-0.540667 -2.804,-0.738 -6.207,-1.345 -28.221,-1.323 -34.514,-0.091 -1.855,0.363 -3.026,0.827 -4.108,2.399 0.996,8.43 36.417,56.352996 43.518,62.028996 3.758,3.003 9.7,3.642 14.32,3.068 6.815,-0.847 12.1,-3.878 16.22,-9.271 2.538,32.428 1.02,65.037 1.385,97.537 l -176.61,-0.338 -0.006,-38.109 c 0.015,-7.862 0.643,-16.419 -0.783,-24.178 -1.717,-9.344 -9.098,-20.949 -13.534,-29.478 l -16.215,-31.188996 c -6.712,-12.977 -12.654,-26.478 -20.226,-38.981 -7.499,0.028 -15.002,0.21 -22.5,0.171 -6.456,-0.034 -13.01,-0.452 -19.433,0.193 -0.23,0.023 -0.461,0.035 -0.69,0.06 -3.866,0.423 -25.855,11.732 -31.11,14.041 -8.503,3.735 -17.251,6.99 -25.68,10.875 -1.754,0.808 -3.308,1.619 -4.859,2.79 -0.346,0.696 -0.641,0.85 -0.374,1.644 0.328,0.974 0.789,1.597 1.346,2.445 3.844,5.86 6.544,13.015 9.459,19.400996 3.249,7.117 6.579,14.195 8.976,21.659 10.034,31.252 8.734,65.586 8.772,98.001 0.024,20.062 0.862,39.732 -3.387,59.502 -3.965,18.448 -9.361,37.433 -16.385,54.967 -2.499,6.238 -5.707,12.147 -8.263,18.34 8.748,4.932 18.9,7.8 28.356,11.152 23.223,8.232 45.466,18.372 70.588,11.341 2.926,-0.819 5.803,-1.831 8.673,-2.827 10.00667,-20.63467 19.84133,-41.35133 29.504,-62.15 5.453,-11.705 15.087,-29.467 17.118,-41.798 1.258,-7.633 0.866,-15.632 0.83,-23.347 l -0.209,-30.337 176.534,-0.253 c 0.272,20.806 3.418,81.63 -1.5,97.351 -2.581,-5.175 -5.76,-8.586 -11.459,-10.426 -0.334,-0.11133 -0.67067,-0.21367 -1.01,-0.307 -0.33933,-0.094 -0.681,-0.17933 -1.025,-0.256 -0.34333,-0.0767 -0.68867,-0.14433 -1.036,-0.203 -0.34733,-0.0587 -0.69567,-0.10833 -1.045,-0.149 -0.35,-0.0413 -0.70067,-0.0733 -1.052,-0.096 -0.35133,-0.0233 -0.703,-0.0377 -1.055,-0.043 -0.352,-0.005 -0.704,-6.7e-4 -1.056,0.012 -0.352,0.0133 -0.70333,0.0353 -1.054,0.066 -0.35067,0.0307 -0.70033,0.0707 -1.049,0.12 -0.34867,0.0487 -0.696,0.106 -1.042,0.172 -0.346,0.0667 -0.68967,0.142 -1.031,0.226 -0.342,0.0847 -0.68167,0.17767 -1.019,0.279 -0.33733,0.10133 -0.67167,0.21133 -1.003,0.33 -0.33133,0.11867 -0.65967,0.24567 -0.985,0.381 -0.32533,0.13533 -0.64667,0.279 -0.964,0.431 -0.318,0.15133 -0.63167,0.311 -0.941,0.479 -4.122,2.248 -7.302,5.698 -10.169,9.352 -5.756,7.337 -10.148,15.819 -15.09,23.718 -7.523,12.024 -15.627,23.932 -22.289,36.455 16.668,0.257 39.705,2.863 53.565,-7.933 2.782,5.494 1.784,11.059 2.394,16.985 l 0.064,0.575 c -13.663,7.209 -27.791,12.052 -43.118,14.207 -8.432,1.185 -17.049,0.956 -25.549,0.994 l -34.846,0.064 c -36.92267,0.028 -73.844,0.24067 -110.764,0.638 0.506,-3.081 0.581,-5.824 -1.292,-8.512 -1.132,-1.624 -2.898,-2.384 -4.808,-2.656 -3.865,-0.551 -7.511,1.073 -10.428,3.509 -2.439,2.036 -4.588,4.903 -6.029,7.749 l -10.798,0.035 -158.191,0.052 c -27.718,0.044 -55.673,-0.709 -83.363,0.242 -48.114,0.23467 -96.22733,0.16 -144.34,-0.224 l -44.713,-0.09 c -10.337996,-0.014 -20.781996,0.395 -31.057996,-0.877 -2.365,-4.239 -4.651,-8.477 -6.706,-12.877 -1.353,-2.895 -2.447,-6.298 -4.128,-8.978 l 2.143,-1.2 c 4.204,-2.87 8.228,-5.509 13.048,-7.266 13.311,-4.852 49.608996,-10.886 58.450996,-17.554 2.382,-1.796 3.699,-4.247 4.28,-7.159 1.536,-7.697 0.556,-18.319 0.567,-26.271 l 0.019,-55.041 -0.037,-109.628 c -0.015,-19.941 0.666,-40.24 -0.39,-60.139996 -0.201,-3.787 -0.712,-6.736 -2.861,-9.987 -1.384,-2.093 -4.88,-3.541 -7.133,-4.388 -4.963,-1.867 -10.315,-3.031 -15.447,-4.375 -15.787996,-4.138 -36.637996,-8.356 -50.926996,-15.578 l -0.523,-0.078 c 2.508,-7.401 8.682,-14.621 9.373,-22.472 12.042,-1.411 24.702,-0.903 36.824996,-0.972 l 63.22,-0.135 214.918,0.504 c 52.989,-0.015 106.004,-1.551 158.988,-0.487 0.811,1.63 1.825,3.209 3.219,4.398 2.523,2.151 6.04,3.58 9.387,3.295 4.991,-0.425 6.425,-4.092 9.314,-7.392 l 0.49,-0.552 c 4.205,0.53 8.808,0.196 13.049,0.185 l 24.789,-0.082 77.554,0.088 c 17.021,0.002 39.37984,0.552188 59.59173,0.669027 m 28.42827,111.743969 c -5.295,-0.702 -10.857,-0.394 -16.193,-0.392 l -26.884,0.029 c -27.589,0.008 -55.234,-0.328 -82.816,0.039 -0.721,0.009 -1.137,0.184 -1.729,0.577 -0.349,0.745 -0.661,1.442 -0.925,2.223 8.652,0.573 17.507,0.181 26.188,0.159 l 44.525,-0.003 38.752,0.027 c 5.352,0.001 11.243,0.54 16.55,0.098 0.59,-0.049 1.049,-0.276 1.579,-0.513 0.564,-0.793 0.789,-1.283 0.953,-2.244 z m -0.388,135.098 -87.158,-0.219 -27.523,-0.118 c -4.026,0.005 -8.665,-0.419 -12.59,0.305 -0.826,1.012 -0.679,1.384 -0.825,2.643 10.725,0.991 21.93,0.387 32.719,0.391 l 57.744,0.015 26.345,0.015 c 2.676,0.004 6.387,0.558 8.92,0.141 0.777,-0.128 0.901,-0.234 1.517,-0.539 0.595,-0.923 0.721,-1.549 0.851,-2.634 z m -44.14,47.958 c -5.9,-1.094 -103.15,-0.611 -104.168,-0.073 -0.657,0.347 -0.865,1.461 -1.04,2.142 10.022,0.715 20.277,0.359 30.326,0.371 l 51.717,0.049 c 3.557,0.003 19.73,0.593 21.657,0.045 0.365,-0.104 0.671,-0.357 1.006,-0.535 0.189,-0.666 0.396,-1.314 0.502,-1.999 z m -1.997,-232.921996 -69.316,-0.045 c -9.863,0.016 -20.052,-0.572 -29.864,-0.045 -0.756,0.041 -1.28,0.304 -1.909,0.694 -0.307,0.82 -0.502,1.482 -0.573,2.355 l 74.973,0.026 c 4.908,-0.006 21.59,0.65 24.706,0.06 0.623,-0.118 0.784,-0.261 1.263,-0.552 0.418,-0.877 0.61,-1.528 0.72,-2.493 z m -207.223,284.174996 c -3.238,-1.62 -6.792,-2.58 -10.128,-4.019 -9.562,-4.126 -19.1,-8.24 -28.755,-12.15 -4.617,-1.869 -9.625,-4.369 -14.527,-5.261 -6.131,-1.115 -181.62,-0.226 -182.695,0.282 -0.381,0.18 -0.55,0.371 -0.839,0.64 1.83,7.372 4.53,15 9.023,21.212 25.155,-1.425 225.538,0.849 227.921,-0.704 z m -5.455,-331.588996 c -1.021,-0.965 -1.235,-1.45 -2.713,-1.546 -7.046,-0.459 -14.596,0.28 -21.681,0.361 l -43.18,0.126 -154.356,-0.059 c -3.479,4.036 -13.354,15.1 -15.494,18.925 0.765,0.573 1.278,0.862 2.253,0.96 9.394,0.946 19.724,0.081 29.197,0.059 l 62.131,-0.106 66.48,0.135 c 8.714,0.015 21.931,0.938 30,-0.292 3.676,-0.561 45.958,-16.612 47.15,-18.184 0.087,-0.116 0.142,-0.253 0.213,-0.379 z m -241.302,-0.949 c -8.1,-0.517 -16.377,-0.184 -24.497,-0.171 l -42.144,0.058 -52.995,-0.018 c -8.969,-0.003 -18.057,-0.309 -27.016,0.048 -1.248,0.049 -3.175,0.069 -4.168,0.849 -1.287,1.012 -1.863,2.68 -1.968,4.28 -0.094,1.434 0.416,2.784 1.364,3.855 1.485,1.677 3.976,1.948 6.075,2.263 10.86733,1.414667 21.70933,3.003333 32.526,4.766 8.663,1.403 17.411,3.158 26.166,3.83 8.4,0.644 17.092,0.248 25.52,0.223 l 49.271,-0.095 c 3.909,-4.981 10.99,-13.59 11.866,-19.888 z m -0.97,332.178996 c -1.429,-7.116 -5.365,-14.626 -8.14,-21.372 l -50.049,-0.004 c -9.138,-0.009 -18.579,-0.539 -27.675,0.22 -7.377,0.615 -14.802,2.374 -22.086,3.715 l -33.407,5.912 c -3.134,0.655 -5.944,0.84 -7.853,3.736 -0.831,1.262 -1.297,2.758 -1.011,4.278 0.301,1.603 1.314,2.833 2.764,3.543 1.849,0.907 5.263,0.824 7.335,0.852 11.617,0.157 138.075,0.081 139.458,-0.443 0.368,-0.14 0.408,-0.209 0.664,-0.437 z"
     id="Body"
     sodipodi:nodetypes="cccsccccccccccccccccsccccccccccsccscccccccccssccccscccssscccccccccccccccccccccccccccccccccccccccccccscccccccccccccccsccccccccccsccccccccccccccccsccccccscccccccccccccccccccccccccccccccccccccccscc"
     inkscape:label="Body" />
  <path
     fill="#ffb703"
     d="m 793.85631,86.984294 c 3.38,8.002 5.29,16.503996 6.164,25.120996 l -0.413,1.63 c -4.12,5.393 -9.405,8.424 -16.22,9.271 -4.62,0.574 -10.562,-0.065 -14.32,-3.068 -7.101,-5.676 -42.522,-53.598996 -43.518,-62.028996 1.082,-1.572 2.253,-2.036 4.108,-2.399 6.293,-1.232 28.307,-1.254 34.514,0.091 q 1.421,0.296 2.804,0.738 1.383,0.443 2.712,1.026 1.33,0.584 2.591,1.303 1.261,0.719 2.441,1.565 0.47,0.332 0.929,0.678 c 3.529,2.819 6.395,6.149 9.305,9.587 3.29,5.354 6.375,10.723 8.903,16.486 z"
     id="path25" />
  <path
     fill="#ffb703"
     d="m 799.38431,312.22029 c -0.594,14.997 -10.318,36.995 -18.786,49.754 l -3.023,2.854 c -13.86,10.796 -36.897,8.19 -53.565,7.933 6.662,-12.523 14.766,-24.431 22.289,-36.455 4.942,-7.899 9.334,-16.381 15.09,-23.718 2.867,-3.654 6.047,-7.104 10.169,-9.352 q 0.464,-0.252 0.941,-0.479 0.476,-0.228 0.964,-0.431 0.488,-0.203 0.985,-0.381 0.497,-0.178 1.003,-0.33 0.506,-0.152 1.019,-0.279 0.512,-0.126 1.031,-0.226 0.519,-0.099 1.042,-0.172 0.523,-0.074 1.049,-0.12 0.526,-0.046 1.054,-0.066 0.528,-0.019 1.056,-0.012 0.528,0.008 1.055,0.043 0.527,0.034 1.052,0.096 0.524,0.061 1.045,0.149 0.521,0.088 1.036,0.203 0.516,0.115 1.025,0.256 0.509,0.14 1.01,0.307 c 5.699,1.84 8.878,5.251 11.459,10.426 z"
     id="path26" />
  <path
     fill="#fdfdfd"
     d="m 641.69131,148.26629 c 0.264,-0.781 0.576,-1.478 0.925,-2.223 0.592,-0.393 1.008,-0.568 1.729,-0.577 27.582,-0.367 55.227,-0.031 82.816,-0.039 l 26.884,-0.029 c 5.336,-0.002 10.898,-0.31 16.193,0.392 -0.164,0.961 -0.389,1.451 -0.953,2.244 -0.53,0.237 -0.989,0.464 -1.579,0.513 -5.307,0.442 -11.198,-0.097 -16.55,-0.098 l -38.752,-0.027 -44.525,0.003 c -8.681,0.022 -17.536,0.414 -26.188,-0.159 z"
     id="path28" />
  <path
     fill="#fdfdfd"
     d="m 641.75431,283.49929 c 0.146,-1.259 -10e-4,-1.631 0.825,-2.643 3.925,-0.724 8.564,-0.3 12.59,-0.305 l 27.523,0.118 87.158,0.219 c -0.13,1.085 -0.256,1.711 -0.851,2.634 -0.616,0.305 -0.74,0.411 -1.517,0.539 -2.533,0.417 -6.244,-0.137 -8.92,-0.141 l -26.345,-0.015 -57.744,-0.015 c -10.789,-0.004 -21.994,0.6 -32.719,-0.391 z"
     id="path29" />
  <path
     fill="#fdfdfd"
     d="m 620.50231,330.91529 c 0.175,-0.681 0.383,-1.795 1.04,-2.142 1.018,-0.538 98.268,-1.021 104.168,0.073 -0.106,0.685 -0.313,1.333 -0.502,1.999 -0.335,0.178 -0.641,0.431 -1.006,0.535 -1.927,0.548 -18.1,-0.042 -21.657,-0.045 l -51.717,-0.049 c -10.049,-0.012 -20.304,0.344 -30.326,-0.371 z"
     id="path31" />
  <path
     fill="#fdfdfd"
     d="m 622.05131,98.883294 c 0.071,-0.873 0.266,-1.535 0.573,-2.355 0.629,-0.39 1.153,-0.653 1.909,-0.694 9.812,-0.527 20.001,0.061 29.864,0.045 l 69.316,0.045 c -0.11,0.965 -0.302,1.616 -0.72,2.493 -0.479,0.291 -0.64,0.434 -1.263,0.552 -3.116,0.59 -19.798,-0.066 -24.706,-0.06 z"
     id="path32" />
  <path
     fill="#8ecae6"
     d="m 570.21831,52.687294 c 8.22,14.034 15.148,29.106 22.597,43.586 5.799,11.275996 24.3,44.033996 26.291,54.267996 2.079,10.679 0.83,35.199 0.785,47.304 l 0.048,40.431 c 0.043,10.026 1.217,21.504 -1.067,31.256 -3.177,13.567 -16.133,38.677 -22.705,51.954 -7.346,15.898 -14.398,31.98 -22.047,47.73 -27.445,8.877 -41.755,2.98 -67.58,-6.696 -10.513,-3.938 -21.139,-7.575 -31.679,-11.442 13.698,-29.041 25.004,-63.601 26.653,-95.729 1.057,-20.604 -0.219,-41.347 0.423,-61.971 -0.252,-50.398 -5.392,-69.863 -27.714,-114.445996 14.44,-5.437 28.565,-12.09 42.623,-18.444 4.432,-2.788 9.933,-5.942 15.003,-7.252 6.913,-1.787 29.928,-0.516 38.369,-0.549 z"
     id="path37" />
  <path
     fill="#05698e"
     d="m 556.13931,8.3532941 c 2.941,8.9039999 9.941,15.0189999 10.687,24.8329999 l -0.49,0.552 c -2.889,3.3 -4.323,6.967 -9.314,7.392 -3.347,0.285 -6.864,-1.144 -9.387,-3.295 -1.394,-1.189 -2.408,-2.768 -3.219,-4.398 -2.374,-5.672 -11.052,-20.018 -10.663,-24.9549999 0.203,-2.565 1.51,-4.855 3.562,-6.395 2.318,-1.74000003 5.377,-2.42100003 8.225,-1.93400003 5.041,0.86100003 7.76,4.35700003 10.599,8.20000003 z"
     id="path43" />
  <path
     fill="#05698e"
     d="m 543.19931,398.38129 c 1.441,-2.846 3.59,-5.713 6.029,-7.749 2.917,-2.436 6.563,-4.06 10.428,-3.509 1.91,0.272 3.676,1.032 4.808,2.656 1.873,2.688 1.798,5.431 1.292,8.512 -1.615,7.736 -4.693,15.102 -9.408,21.482 -2.669,3.007 -5.891,7.102 -9.763,8.538 -0.203,-0.162 -0.4,-0.332 -0.608,-0.486 -3.551,-2.63 -7.55,-0.773 -8.616,-6.666 -0.921,-5.094 2.005,-10.206 1.335,-15.27 z"
     id="path44" />
  <path
     fill="#023047"
     d="m 538.69631,405.88929 c 0.67,5.064 -2.256,10.176 -1.335,15.27 1.066,5.893 5.065,4.036 8.616,6.666 0.208,0.154 0.405,0.324 0.608,0.486 -2.459,1.003 -4.716,1.72 -7.289,0.656 -1.82,-0.753 -2.992,-2.665 -3.599,-4.449 -0.494,-1.451 -0.615,-2.97 -0.745,-4.488 0.913,-5.141 1.498,-9.349 3.744,-14.141 z"
     id="path46"
     style="fill:#05698e;fill-opacity:1" />
  <path
     fill="#023047"
     d="m 279.54631,359.59129 c 0.289,-0.269 0.458,-0.46 0.839,-0.64 1.075,-0.508 176.564,-1.397 182.695,-0.282 4.902,0.892 9.91,3.392 14.527,5.261 9.655,3.91 19.193,8.024 28.755,12.15 3.336,1.439 6.89,2.399 10.128,4.019 -2.383,1.553 -202.766,-0.721 -227.921,0.704 -4.493,-6.212 -7.193,-13.84 -9.023,-21.212 z m 216.478,16.49 c -7.347,-3.794 -28.643,-12.819 -36.088,-13.777 -5.499,-0.707 -11.222,-0.413 -16.755,-0.404 l -25.867,0.045 q -47.5,-0.16 -94.997,0.377 c -6.52,0.049 -33.035,-0.831 -37.581,0.365 l -0.322,0.35 c 1.793,4.758 3.598,9.389 6.157,13.804 7.277,-0.547 14.726,-0.171 22.024,-0.121 l 35.466,0.126 q 55.075,0.188 110.148,-0.307 c 6.948,-0.04 32.792,0.983 37.815,-0.458 z"
     id="path52" />
  <path
     fill="#023047"
     d="m 289.10531,47.392294 154.356,0.059 43.18,-0.126 c 7.085,-0.081 14.635,-0.82 21.681,-0.361 1.478,0.096 1.692,0.581 2.713,1.546 -0.071,0.126 -0.126,0.263 -0.213,0.379 -1.192,1.572 -43.474,17.623 -47.15,18.184 -8.069,1.23 -21.286,0.307 -30,0.292 l -66.48,-0.135 -62.131,0.106 c -9.473,0.022 -19.803,0.887 -29.197,-0.059 -0.975,-0.098 -1.488,-0.387 -2.253,-0.96 2.14,-3.825 12.015,-14.889 15.494,-18.925 z m 206.84,3.559 -205.141,-0.087 c -2.606,2.629 -8.517,10.008 -9.76,13.345 l 120.35,-0.378 39.374,-0.349 c 7.187,-0.043 15.032,0.6 22.126,-0.369 7.423,-1.014 26.873,-8.08 33.051,-12.162 z"
     id="path53" />
  <path
     id="path54"
     d="M 134.42578 50.488281 C 131.69757 50.458656 128.97628 50.460375 126.26953 50.515625 C 124.56753 50.550625 123.17462 50.790485 121.64062 51.521484 C 120.74663 52.625483 120.78948 52.548751 120.89648 53.96875 C 122.57448 55.433749 125.6516 55.522094 127.80859 55.746094 C 138.26658 57.092759 148.70878 58.555434 159.13477 60.134766 C 167.40576 61.392764 175.76838 62.959141 184.10938 63.619141 C 192.65037 64.29514 201.46893 63.887672 210.04492 63.888672 L 255.20898 63.878906 C 257.87898 60.09591 262.33152 55.137558 264.10352 50.976562 C 229.12655 51.686562 193.99487 51.174234 159.00391 50.990234 C 150.86116 50.947484 142.61043 50.577156 134.42578 50.488281 z M 290.80469 50.865234 C 288.19869 53.494232 282.28792 60.871988 281.04492 64.208984 L 401.39453 63.832031 L 440.76758 63.482422 C 447.95457 63.439422 455.80054 64.08228 462.89453 63.113281 C 470.31752 62.099282 489.76732 55.033168 495.94531 50.951172 L 290.80469 50.865234 z M 451.57227 361.83398 C 448.76252 361.82023 445.94814 361.89589 443.18164 361.90039 L 417.31445 361.94531 C 385.64782 361.83798 353.98104 361.9636 322.31641 362.32227 C 315.79641 362.37127 289.28232 361.4915 284.73633 362.6875 L 284.41406 363.03711 C 286.20706 367.7951 288.01327 372.4268 290.57227 376.8418 C 297.84926 376.2948 305.29771 376.6707 312.5957 376.7207 L 348.06055 376.8457 C 384.77718 376.97104 421.49369 376.86906 458.20898 376.53906 C 465.15698 376.49906 491.00044 377.52303 496.02344 376.08203 C 488.67644 372.28804 467.38054 363.26269 459.93555 362.30469 C 457.18605 361.95119 454.38201 361.84773 451.57227 361.83398 z M 193.91211 362.26758 C 189.02274 362.2677 184.13976 362.38284 179.32227 362.83984 C 162.45928 364.43984 145.45526 368.69694 128.73828 371.58594 C 126.59228 371.94094 123.15384 372.14831 121.71484 373.94531 C 121.60784 374.07931 121.53531 374.23777 121.44531 374.38477 C 121.78631 375.77676 122.14458 375.86688 123.26758 376.79688 C 129.21257 377.90887 135.86235 377.33019 141.90234 377.24219 L 168.5293 376.91992 C 200.10227 376.73892 231.8378 377.33344 263.38477 376.39844 C 263.99277 375.74344 263.88627 376.08747 263.94727 375.48047 C 261.92027 371.15247 259.78922 366.84459 257.94922 362.43359 L 208.53711 362.38477 C 203.69611 362.38227 198.80148 362.26745 193.91211 362.26758 z "
     style="fill:#8ecae6;fill-opacity:1" />
  <path
     fill="#023047"
     d="m 124.38431,58.725294 c -2.099,-0.315 -4.59,-0.586 -6.075,-2.263 -0.948,-1.071 -1.458,-2.421 -1.364,-3.855 0.105,-1.6 0.681,-3.268 1.968,-4.28 0.993,-0.78 2.92,-0.8 4.168,-0.849 8.959,-0.357 18.047,-0.051 27.016,-0.048 l 52.995,0.018 42.144,-0.058 c 8.12,-0.013 16.397,-0.346 24.497,0.171 -0.876,6.298 -7.957,14.907 -11.866,19.888 l -49.271,0.095 c -8.428,0.025 -17.12,0.421 -25.52,-0.223 -8.755,-0.672 -17.503,-2.427 -26.166,-3.83 q -16.225,-2.644 -32.526,-4.766 z m 139.72,-7.748 c -34.977,0.71 -70.109,0.196 -105.1,0.012 -10.857,-0.057 -21.908,-0.695 -32.735,-0.474 -1.702,0.035 -3.094,0.276 -4.628,1.007 -0.894,1.104 -0.852,1.027 -0.745,2.447 1.678,1.465 4.756,1.553 6.913,1.777 q 15.687,2.02 31.326,4.389 c 8.271,1.258 16.633,2.823 24.974,3.483 8.541,0.676 17.36,0.27 25.936,0.271 l 45.163,-0.011 c 2.67,-3.783 7.124,-8.74 8.896,-12.901 z"
     id="path59" />
  <path
     fill="#023047"
     d="m 260.62331,358.36829 c 2.775,6.746 6.711,14.256 8.14,21.372 -0.256,0.228 -0.296,0.297 -0.664,0.437 -1.383,0.524 -127.841,0.6 -139.458,0.443 -2.072,-0.028 -5.486,0.055 -7.335,-0.852 -1.45,-0.71 -2.463,-1.94 -2.764,-3.543 -0.286,-1.52 0.18,-3.016 1.011,-4.278 1.909,-2.896 4.719,-3.081 7.853,-3.736 l 33.407,-5.912 c 7.284,-1.341 14.709,-3.1 22.086,-3.715 9.096,-0.759 18.537,-0.229 27.675,-0.22 z m 3.324,17.112 c -2.027,-4.328 -4.158,-8.636 -5.998,-13.047 l -49.412,-0.049 c -9.682,-0.005 -19.581,-0.459 -29.216,0.455 -16.863,1.6 -33.866,5.857 -50.583,8.746 -2.146,0.355 -5.585,0.563 -7.024,2.36 -0.107,0.134 -0.179,0.293 -0.269,0.44 0.341,1.392 0.7,1.481 1.823,2.411 5.945,1.112 12.595,0.534 18.635,0.446 l 26.626,-0.322 c 31.573,-0.181 63.308,0.414 94.855,-0.521 0.608,-0.655 0.502,-0.312 0.563,-0.919 z"
     id="path60" />
  <path
     fill="#ffb703"
     d="m 61.615314,57.077294 c 14.289,7.222 35.139,11.44 50.926996,15.578 5.132,1.344 10.484,2.508 15.447,4.375 2.253,0.847 5.749,2.295 7.133,4.388 2.149,3.251 2.66,6.2 2.861,9.987 1.056,19.899996 0.375,40.198996 0.39,60.139996 l 0.037,109.628 -0.019,55.041 c -0.011,7.952 0.969,18.574 -0.567,26.271 -0.581,2.912 -1.898,5.363 -4.28,7.159 -8.842,6.668 -45.139996,12.702 -58.450996,17.554 -4.82,1.757 -8.844,4.396 -13.048,7.266 -3.725,-9.581 -7.232,-19.315 -9.635,-29.319 -1.595,-6.638 -2.242,-16.672 -4.912,-22.559 l -0.216,-1.934 c -2.202,-19.181 -2.098,-38.422 -2.024,-57.694 l 0.07,-48.828 0.035,-51.64 c 0.02,-16.941 -0.057,-33.855 1.819,-50.723 1.358,-12.205996 8.174,-45.072996 14.433,-54.689996 z"
     id="path64"
     style="fill:#8ecae6;fill-opacity:1" />
  <path
     id="RearBumper"
     d="M 70.464844 34.527344 C 58.798855 37.066341 49.235318 40.942193 38.861328 46.867188 C 25.396342 55.283179 13.675103 68.252577 7.2871094 82.851562 C 5.2421114 87.526558 3.8664502 93.806488 0.93945312 97.896484 C 0.8664532 98.079484 0.77674994 98.257313 0.71875 98.445312 C -0.10150114 101.12182 -0.32851682 109.97248 0.61914062 113.41797 L 0.61914062 119.10742 C -0.37345626 139.88937 0.23605912 291.96908 0.36328125 310.75586 C 0.37140624 312.00386 0.23908748 313.30054 0.79101562 314.33984 L 0.79101562 317.95898 C 0.76616497 317.95133 0.74165389 317.94518 0.71679688 317.9375 C -0.12720228 320.1295 0.25750018 323.53281 0.4375 325.88281 C 2.1774982 329.10081 2.6156728 334.33294 3.5136719 337.96094 C 6.7816686 351.15892 13.401681 362.93082 22.638672 372.88281 C 34.33666 385.4868 53.171346 396.91753 70.736328 397.51953 C 68.37133 393.28054 66.086248 389.04257 64.03125 384.64258 C 62.678251 381.74758 61.583342 378.34406 59.902344 375.66406 C 43.075361 366.27107 37.271714 352.513 32.136719 334.54102 C 31.33192 331.72581 30.496222 328.70435 30.125 325.72852 L 36.486328 325.72852 L 36.667969 327.30469 L 47.912109 326.00586 L 46.964844 317.81055 L 45.855469 317.93945 L 45.855469 309.67188 L 28.578125 309.67188 C 28.205882 306.76524 27.862115 303.85453 27.681641 300.91602 C 26.759642 285.91103 27.148 270.67561 27.125 255.64062 C 26.941667 233.95665 26.9205 212.27382 27.0625 190.58984 L 27.216797 151.77344 C 27.245797 143.51545 27.062594 135.18426 27.683594 126.94727 C 27.862878 124.57175 28.156314 122.19654 28.484375 119.82422 L 46.130859 119.82422 L 46.130859 103.76758 L 30.818359 103.76758 C 34.209525 91.493737 37.18566 79.755545 45.140625 69.226562 C 48.781621 64.406567 54.824803 57.878999 61.091797 57 C 63.599794 49.599007 69.773844 42.378336 70.464844 34.527344 z "
     style="fill:#05698e;fill-opacity:1"
     inkscape:label="RearBumper" />
  <path
     id="RearAccent"
     d="M 61.091797 57 C 54.824803 57.878999 48.781621 64.406567 45.140625 69.226562 C 36.533634 80.618551 33.768371 93.394549 29.984375 106.76953 C 34.75237 106.71653 40.959708 105.97375 45.470703 107.46875 L 46.123047 108.11523 C 45.803047 109.36323 45.892108 109.05897 44.912109 109.66797 L 29.970703 109.98047 C 29.116704 115.60246 28.111593 121.27627 27.683594 126.94727 C 27.062594 135.18426 27.245797 143.51545 27.216797 151.77344 L 27.0625 190.58984 C 26.9205 212.27382 26.941667 233.95665 27.125 255.64062 C 27.148 270.67561 26.759642 285.91103 27.681641 300.91602 C 28.08564 307.49401 29.268485 313.94243 29.896484 320.48242 C 35.687479 320.45642 41.500209 320.32334 47.283203 320.65234 C 45.081205 301.47136 45.183813 282.23097 45.257812 262.95898 L 45.328125 214.13086 L 45.363281 162.49023 C 45.383281 145.54925 45.305643 128.63556 47.181641 111.76758 C 48.539639 99.561594 55.356241 66.695115 61.615234 57.078125 L 61.091797 57 z M 47.498047 322.58594 C 41.950052 323.99994 35.642635 323.50936 29.931641 323.44336 C 30.049641 327.13436 31.12472 331.00102 32.136719 334.54102 C 37.271714 352.513 43.075361 366.27107 59.902344 375.66406 L 62.044922 374.46484 C 58.319926 364.88385 54.813154 355.14852 52.410156 345.14453 C 50.815158 338.50654 50.168044 328.47293 47.498047 322.58594 z "
     style="fill:#e34e3d;fill-opacity:1"
     inkscape:label="RearAccent" />
</svg>
